#Comment line ignore any data following # character 
#Hierarchical Translation and Rotation (.htr) file 
[Header]	
#Header keywords are followed by a single value 
FileType HTR		#Single word string
DataType HTRS		#Translation followed by rotation and scale data
FileVersion 1		#integer
NumSegments 64		#integer
NumFrames 3		#integer
DataFrameRate 30		#integer, data frame rate in this file
EulerRotationOrder ZYX
CalibrationUnits mm
RotationUnits Degrees
GlobalAxisofGravity Y
BoneLengthAxis Y
ScaleFactor 1.00
[SegmentNames&Hierarchy]
#CHILD	PARENT
Pinger_Root GLOBAL
Pelvis Pinger_Root
L_Hip Pelvis
R_Hip Pelvis
Rear_Leg01 Pelvis
Spine1 Pelvis
L_Leg01 L_Hip
L_Leg02 L_Leg01
L_Leg03 L_Leg02
L_Foot L_Leg03
L_Toe1_01 L_Foot
L_Toe2_01 L_Foot
L_Toe3_01 L_Foot
planeAlignerLeft L_Foot
L_Toe1_02 L_Toe1_01
L_Toe1_03 L_Toe1_02
L_Toe2_02 L_Toe2_01
L_Toe2_03 L_Toe2_02
L_Toe3_02 L_Toe3_01
L_Toe3_03 L_Toe3_02
planeLockWeightLeft planeAlignerLeft
R_Leg01 R_Hip
R_Leg02 R_Leg01
R_Leg03 R_Leg02
R_Foot R_Leg03
planeAlignerRight R_Foot
R_Toe1_01 R_Foot
R_Toe2_01 R_Foot
R_Toe3_01 R_Foot
planeLockWeightRight planeAlignerRight
R_Toe1_02 R_Toe1_01
R_Toe1_03 R_Toe1_02
R_Toe2_02 R_Toe2_01
R_Toe2_03 R_Toe2_02
R_Toe3_02 R_Toe3_01
R_Toe3_03 R_Toe3_02
Rear_Leg02 Rear_Leg01
Rear_Leg03 Rear_Leg02
Rear_Leg04 Rear_Leg03
Rear_Foot Rear_Leg04
planeAlignerCenter Rear_Foot
Rear_Toe1_01 Rear_Foot
Rear_Toe2_01 Rear_Foot
Rear_Toe3_01 Rear_Foot
planeLockWeightCenter planeAlignerCenter
Rear_Toe1_02 Rear_Toe1_01
Rear_Toe1_03 Rear_Toe1_02
Rear_Toe2_02 Rear_Toe2_01
Rear_Toe2_03 Rear_Toe2_02
Rear_Toe3_02 Rear_Toe3_01
Rear_Toe3_03 Rear_Toe3_02
Back_Bone Spine1
Head Spine1
Motor_Bone Back_Bone
Ping_Mechanism Back_Bone
BN_LookIK Head
bottomMouth Head
L_Mouth01 Head
L_mouthFront Head
mouthGun Head
R_Mouth01 Head
R_mouthFront Head
TopMouth Head
weapon_bone Head
[BasePosition]
#SegmentName Tx, Ty, Tz, Rx, Ry, Rz, BoneLength
Pinger_Root 0.000000 0.000000 0.000000 -90.000000 0.000000 0.000000 10.000000 
Pelvis 0.000000 0.000000 0.000000 0.000000 0.000000 0.000000 10.000000 
L_Hip 0.000000 0.000000 0.000000 0.000000 0.000000 0.000000 10.000000 
R_Hip 0.000000 0.000000 0.000000 0.000000 0.000000 0.000000 10.000000 
Rear_Leg01 0.000000 0.000000 0.000000 0.000000 0.000000 0.000000 10.000000 
Spine1 0.000000 0.000000 0.000000 0.000000 0.000000 0.000000 10.000000 
L_Leg01 0.000000 0.000000 0.000000 0.000000 0.000000 0.000000 10.000000 
L_Leg02 0.000000 0.000000 0.000000 0.000000 0.000000 0.000000 10.000000 
L_Leg03 0.000000 0.000000 0.000000 0.000000 0.000000 0.000000 10.000000 
L_Foot 0.000000 0.000000 0.000000 0.000000 0.000000 0.000000 10.000000 
L_Toe1_01 0.000000 0.000000 0.000000 0.000000 0.000000 0.000000 10.000000 
L_Toe2_01 0.000000 0.000000 0.000000 0.000000 0.000000 0.000000 10.000000 
L_Toe3_01 0.000000 0.000000 0.000000 0.000000 0.000000 0.000000 10.000000 
planeAlignerLeft 0.000000 0.000000 0.000000 0.000000 0.000000 0.000000 10.000000 
L_Toe1_02 0.000000 0.000000 0.000000 0.000000 0.000000 0.000000 10.000000 
L_Toe1_03 0.000000 0.000000 0.000000 0.000000 0.000000 0.000000 10.000000 
L_Toe2_02 0.000000 0.000000 0.000000 0.000000 0.000000 0.000000 10.000000 
L_Toe2_03 0.000000 0.000000 0.000000 0.000000 0.000000 0.000000 10.000000 
L_Toe3_02 0.000000 0.000000 0.000000 0.000000 0.000000 0.000000 10.000000 
L_Toe3_03 0.000000 0.000000 0.000000 0.000000 0.000000 0.000000 10.000000 
planeLockWeightLeft 0.000000 0.000000 0.000000 0.000000 0.000000 0.000000 10.000000 
R_Leg01 0.000000 0.000000 0.000000 0.000000 0.000000 0.000000 10.000000 
R_Leg02 0.000000 0.000000 0.000000 0.000000 0.000000 0.000000 10.000000 
R_Leg03 0.000000 0.000000 0.000000 0.000000 0.000000 0.000000 10.000000 
R_Foot 0.000000 0.000000 0.000000 0.000000 0.000000 0.000000 10.000000 
planeAlignerRight 0.000000 0.000000 0.000000 0.000000 0.000000 0.000000 10.000000 
R_Toe1_01 0.000000 0.000000 0.000000 0.000000 0.000000 0.000000 10.000000 
R_Toe2_01 0.000000 0.000000 0.000000 0.000000 0.000000 0.000000 10.000000 
R_Toe3_01 0.000000 0.000000 0.000000 0.000000 0.000000 0.000000 10.000000 
planeLockWeightRight 0.000000 0.000000 0.000000 0.000000 0.000000 0.000000 10.000000 
R_Toe1_02 0.000000 0.000000 0.000000 0.000000 0.000000 0.000000 10.000000 
R_Toe1_03 0.000000 0.000000 0.000000 0.000000 0.000000 0.000000 10.000000 
R_Toe2_02 0.000000 0.000000 0.000000 0.000000 0.000000 0.000000 10.000000 
R_Toe2_03 0.000000 0.000000 0.000000 0.000000 0.000000 0.000000 10.000000 
R_Toe3_02 0.000000 0.000000 0.000000 0.000000 0.000000 0.000000 10.000000 
R_Toe3_03 0.000000 0.000000 0.000000 0.000000 0.000000 0.000000 10.000000 
Rear_Leg02 0.000000 0.000000 0.000000 0.000000 0.000000 0.000000 10.000000 
Rear_Leg03 0.000000 0.000000 0.000000 0.000000 0.000000 0.000000 10.000000 
Rear_Leg04 0.000000 0.000000 0.000000 0.000000 0.000000 0.000000 10.000000 
Rear_Foot 0.000000 0.000000 0.000000 0.000000 0.000000 0.000000 10.000000 
planeAlignerCenter 0.000000 0.000000 0.000000 0.000000 0.000000 0.000000 10.000000 
Rear_Toe1_01 0.000000 0.000000 0.000000 0.000000 0.000000 0.000000 10.000000 
Rear_Toe2_01 0.000000 0.000000 0.000000 0.000000 0.000000 0.000000 10.000000 
Rear_Toe3_01 0.000000 0.000000 0.000000 0.000000 0.000000 0.000000 10.000000 
planeLockWeightCenter 0.000000 0.000000 0.000000 0.000000 0.000000 0.000000 10.000000 
Rear_Toe1_02 0.000000 0.000000 0.000000 0.000000 0.000000 0.000000 10.000000 
Rear_Toe1_03 0.000000 0.000000 0.000000 0.000000 0.000000 0.000000 10.000000 
Rear_Toe2_02 0.000000 0.000000 0.000000 0.000000 0.000000 0.000000 10.000000 
Rear_Toe2_03 0.000000 0.000000 0.000000 0.000000 0.000000 0.000000 10.000000 
Rear_Toe3_02 0.000000 0.000000 0.000000 0.000000 0.000000 0.000000 10.000000 
Rear_Toe3_03 0.000000 0.000000 0.000000 0.000000 0.000000 0.000000 10.000000 
Back_Bone 0.000000 0.000000 0.000000 0.000000 0.000000 0.000000 10.000000 
Head 0.000000 0.000000 0.000000 0.000000 0.000000 0.000000 10.000000 
Motor_Bone 0.000000 0.000000 0.000000 0.000000 0.000000 0.000000 10.000000 
Ping_Mechanism 0.000000 0.000000 0.000000 0.000000 0.000000 0.000000 10.000000 
BN_LookIK 0.000000 0.000000 0.000000 0.000000 0.000000 0.000000 10.000000 
bottomMouth 0.000000 0.000000 0.000000 0.000000 0.000000 0.000000 10.000000 
L_Mouth01 0.000000 0.000000 0.000000 0.000000 0.000000 0.000000 10.000000 
L_mouthFront 0.000000 0.000000 0.000000 0.000000 0.000000 0.000000 10.000000 
mouthGun 0.000000 0.000000 0.000000 0.000000 0.000000 0.000000 10.000000 
R_Mouth01 0.000000 0.000000 0.000000 0.000000 0.000000 0.000000 10.000000 
R_mouthFront 0.000000 0.000000 0.000000 0.000000 0.000000 0.000000 10.000000 
TopMouth 0.000000 0.000000 0.000000 0.000000 0.000000 0.000000 10.000000 
weapon_bone 0.000000 0.000000 0.000000 0.000000 0.000000 0.000000 10.000000 
#Beginning of Data. Separated by tabs
#Fr	Tx	Ty	Tz	Rx	Ry	Rz	SF
[Pinger_Root]
36 -0.000020 2500.000000 0.000000 -0.000075 -0.000000 -0.000020 2500.000000
37 -0.000020 2500.000000 0.000000 -0.000075 -0.000000 -0.000020 2500.000000
38 -0.000020 2500.000000 0.000000 -0.000075 -0.000000 -0.000020 2500.000000
[Pelvis]
36 -189.126495 1041.896118 4308.804688 -99.362099 -83.441620 123.956062 4437.016113
37 -157.836487 1071.080933 4335.123047 -108.069336 -81.432480 131.992813 4468.268066
38 -126.546547 1100.265747 4361.441406 -111.609825 -79.554298 133.935455 4499.863770
[L_Hip]
36 5.766392 125.831482 872.656799 -178.253311 -81.787758 87.381340 881.701050
37 5.766392 125.831482 872.656799 -178.253311 -81.787712 87.381248 881.701050
38 5.766392 125.831482 872.656799 -178.253342 -81.787758 87.381340 881.701050
[R_Hip]
36 5.765438 125.836372 -872.654907 -1.746690 81.787712 87.381248 881.699829
37 5.765438 125.836372 -872.654907 -1.746713 81.787666 87.381149 881.699829
38 5.765438 125.836372 -872.654907 -1.746678 81.787712 87.381248 881.699829
[Rear_Leg01]
36 -192.298416 -925.602966 -0.001907 169.874313 -13.950719 -173.851364 945.367432
37 -192.298416 -925.602966 -0.001907 170.033249 -15.522059 -175.212570 945.367432
38 -192.298416 -925.602966 -0.001907 169.220596 -16.237848 -176.131165 945.367432
[Spine1]
36 290.604584 5.007505 0.000477 -23.647205 13.963190 22.765257 290.647736
37 290.604584 5.007505 0.000477 -22.366949 15.127041 21.502102 290.647736
38 290.604584 5.007505 0.000477 -20.448940 15.454444 20.435482 290.647736
[L_Leg01]
36 761.932007 -0.002384 -0.069261 88.444092 -43.615414 -73.987648 761.932068
37 761.932007 -0.002384 -0.069261 83.659851 -46.731194 -70.335632 761.932068
38 761.932007 -0.002384 -0.069261 78.677673 -48.398621 -66.727325 761.932068
[L_Leg02]
36 1441.140503 -0.000954 -0.000715 8.219117 3.697058 -146.789352 1441.140503
37 1441.140503 -0.000954 -0.000715 8.384400 3.919382 -148.367905 1441.140503
38 1441.140503 -0.000954 -0.000715 8.396940 3.934597 -148.499939 1441.140503
[L_Leg03]
36 1686.963989 -0.000715 -0.000954 -0.128270 0.081869 144.548508 1686.963989
37 1686.963989 -0.000715 -0.000954 -0.127835 0.082547 145.155502 1686.963989
38 1686.963989 -0.000715 -0.000954 -0.127889 0.082463 145.080338 1686.963989
[L_Foot]
36 3041.570068 -30.715107 11.297464 -8.008862 10.153745 37.101563 3041.746094
37 3041.570068 -30.715107 11.297464 -3.321122 9.657619 43.120731 3041.746094
38 3041.570068 -30.715107 11.297464 0.664944 9.009717 49.400024 3041.746094
[L_Toe1_01]
36 -188.216690 -224.732346 -21.137953 88.660416 -1.664881 -139.985992 293.899567
37 -188.216690 -224.732346 -21.137953 88.676178 -1.723373 -139.887268 293.899567
38 -188.216690 -224.732346 -21.137953 88.691833 -1.781894 -139.788559 293.899567
[L_Toe2_01]
36 200.746536 -219.926590 148.838394 -73.289635 -3.845548 -75.723244 332.896027
37 200.746536 -219.926590 148.838394 -73.401955 -3.867615 -74.956062 332.896027
38 200.746536 -219.926590 148.838394 -73.514572 -3.888181 -74.188789 332.896027
[L_Toe3_01]
36 188.832520 -219.859131 -191.078659 -111.233727 4.463524 -76.788567 347.140900
37 188.832520 -219.859131 -191.078659 -111.072166 4.369415 -75.990677 347.140900
38 188.832520 -219.859131 -191.078659 -110.911957 4.273073 -75.193199 347.140900
[planeAlignerLeft]
36 10.008027 -778.600830 0.715359 0.000000 -89.897209 -90.094627 778.665466
37 35.234238 -771.369995 -1.608707 0.000000 -89.895325 -90.097290 772.175964
38 62.283520 -767.679382 -2.304219 0.000000 -89.888092 -90.099945 770.205261
[L_Toe1_02]
36 413.761139 0.000477 0.000000 0.001456 -17.478647 0.001456 413.761139
37 413.761139 0.000477 0.000000 0.001460 -16.986897 0.001460 413.761139
38 413.761139 0.000477 0.000000 0.001465 -16.495119 0.001465 413.761139
[L_Toe1_03]
36 464.317322 0.000358 -0.000089 -179.994186 81.286659 -179.990677 464.317322
37 464.317322 0.000358 -0.000089 -179.995285 79.820107 -179.991760 464.317322
38 464.317322 0.000358 -0.000089 -179.996094 78.352791 -179.992569 464.317322
[L_Toe2_02]
36 342.235809 -0.000477 0.000238 0.001180 -77.900383 0.001180 342.235809
37 342.235809 -0.000477 0.000238 0.001180 -77.789085 0.001180 342.235809
38 342.235809 -0.000477 0.000238 0.001180 -77.677727 0.001180 342.235809
[L_Toe2_03]
36 420.210846 -0.000715 0.000000 -179.997040 76.006752 -179.993515 420.210846
37 420.210846 -0.000715 0.000000 -179.996872 76.474335 -179.993347 420.210846
38 420.210846 -0.000715 0.000000 -179.996521 77.415535 -179.992996 420.210846
[L_Toe3_02]
36 329.270111 0.000954 0.000000 0.001177 -81.547409 0.001177 329.270111
37 329.270111 0.000954 0.000000 0.001177 -81.390854 0.001177 329.270111
38 329.270111 0.000954 0.000000 0.001177 -81.234268 0.001177 329.270111
[L_Toe3_03]
36 439.137451 -0.001907 0.000954 -179.997696 73.760963 -179.994156 439.137451
37 439.137451 -0.001907 0.000954 -179.997589 74.175217 -179.994064 439.137451
38 439.137451 -0.001907 0.000954 -179.997375 74.964622 -179.993851 439.137451
[planeLockWeightLeft]
36 0.000191 -0.000019 -0.000286 -0.011826 -0.004376 0.005620 0.000344
37 0.000162 -0.000014 -0.000281 -0.011826 -0.004376 0.005620 0.000325
38 0.000134 -0.000010 -0.000277 -0.011826 -0.004376 0.005620 0.000307
[R_Leg01]
36 761.455627 -0.001907 -0.000358 135.856277 -11.478581 47.775623 761.455688
37 761.455627 -0.001907 -0.000358 137.623795 -12.112825 51.278950 761.455688
38 761.455627 -0.001907 -0.000358 138.329803 -13.410523 54.180351 761.455688
[R_Leg02]
36 1441.140625 0.000000 -0.000238 -0.165571 -0.005968 -121.798409 1441.140625
37 1441.140625 0.000000 -0.000238 -0.174230 0.001525 -120.033989 1441.140625
38 1441.140625 0.000000 -0.000238 -0.182655 0.009280 -118.269600 1441.140625
[R_Leg03]
36 1686.963989 0.000954 0.001431 0.010171 -0.005638 112.998230 1686.963989
37 1686.963989 0.000954 0.001431 0.015238 -0.006853 114.264458 1686.963989
38 1686.963989 0.000954 0.001431 0.020277 -0.008180 115.530670 1686.963989
[R_Foot]
36 3041.560059 -30.531288 -11.204481 25.919876 -9.273922 59.153927 3041.734131
37 3041.560059 -30.531288 -11.204481 24.501160 -8.486449 58.868481 3041.734131
38 3041.560059 -30.531288 -11.204481 23.164577 -7.733260 58.393345 3041.734131
[planeAlignerRight]
36 -72.536858 -619.298157 -224.124283 0.000000 -89.891647 -90.071693 662.588501
37 -54.438374 -643.297852 -175.071213 0.000000 -89.889854 -90.073608 668.913757
38 -49.034813 -669.109497 -155.386337 0.000000 -89.888092 -90.075516 688.663147
[R_Toe1_01]
36 -188.383347 -224.864899 21.052242 90.694099 6.507167 -157.774170 294.101532
37 -188.383347 -224.864899 21.052242 90.710663 4.231440 -157.362335 294.101532
38 -188.383347 -224.864899 21.052242 90.807358 3.271699 -155.710205 294.101532
[R_Toe2_01]
36 200.637817 -220.002121 -148.787384 -101.996468 11.347285 -45.537388 332.857574
37 200.637817 -220.002121 -148.787384 -101.425697 8.258076 -46.674873 332.857574
38 200.637817 -220.002121 -148.787384 -101.462029 6.949353 -48.275417 332.857574
[R_Toe3_01]
36 188.606735 -220.092957 191.126343 -66.310303 -33.356781 -55.828278 347.192566
37 188.606735 -220.092957 191.126343 -63.959545 -33.292240 -59.554920 347.192566
38 188.606735 -220.092957 191.126343 -62.875736 -32.623524 -62.105598 347.192566
[planeLockWeightRight]
36 1000.000000 0.000305 -0.000431 -0.011823 -0.004379 -0.000027 1000.000000
37 1000.000000 0.000305 -0.000431 -0.011823 -0.004379 -0.000027 1000.000000
38 1000.000000 0.000305 -0.000431 -0.011823 -0.004379 -0.000027 1000.000000
[R_Toe1_02]
36 413.762085 0.000477 -0.000119 0.001384 -25.946947 0.001384 413.762085
37 413.762085 0.000477 -0.000119 0.001384 -25.931728 0.001384 413.762085
38 413.762085 0.000477 -0.000119 0.001385 -25.916502 0.001385 413.762085
[R_Toe1_03]
36 464.317810 0.000000 0.001088 0.004061 56.401817 0.004061 464.317810
37 464.317810 0.000000 0.001088 0.004429 59.266529 0.004429 464.317810
38 464.317810 0.000000 0.001088 0.004265 58.052567 0.004265 464.317810
[R_Toe2_02]
36 342.234741 -0.000954 0.000238 -0.000228 -72.716637 -0.000228 342.234741
37 342.234741 -0.000954 0.000238 0.000481 -71.633034 0.000481 342.234741
38 342.234741 -0.000954 0.000238 0.001191 -70.549744 0.001191 342.234741
[R_Toe2_03]
36 420.210846 0.000715 -0.000268 0.005544 86.814758 0.003441 420.210846
37 420.210846 0.000715 -0.000268 0.009417 83.747803 0.008014 420.210846
38 420.210846 0.000715 -0.000268 0.010511 80.683144 0.009808 420.210846
[R_Toe3_02]
36 329.270355 -0.000477 -0.000954 0.001177 -81.762833 0.001177 329.270355
37 329.270355 -0.000477 -0.000954 0.001178 -79.621361 0.001178 329.270355
38 329.270355 -0.000477 -0.000954 0.001180 -77.957687 0.001180 329.270355
[R_Toe3_03]
36 439.137939 0.000238 0.001431 -179.997910 72.921707 -179.994370 439.137939
37 439.137939 0.000238 0.001431 -179.993698 81.819405 -179.990189 439.137939
38 439.137939 0.000238 0.001431 -179.996094 86.963585 -179.993484 439.137939
[Rear_Leg02]
36 1162.777710 -0.029802 0.005960 -44.731541 15.013401 -172.452881 1162.777710
37 1162.777710 -0.029802 0.005960 -44.164040 17.990089 -168.984833 1162.777710
38 1162.777710 -0.029802 0.005960 -43.397125 20.918928 -165.432632 1162.777710
[Rear_Leg03]
36 607.192505 -0.013351 -0.073195 0.009921 -0.006143 79.883636 607.192505
37 607.192505 -0.013351 -0.073195 0.009951 -0.006096 79.334305 607.192505
38 607.192505 -0.013351 -0.073195 0.009980 -0.006048 78.784973 607.192505
[Rear_Leg04]
36 995.874512 -0.020504 -0.011921 -0.043686 -0.014220 101.886330 995.874573
37 995.874512 -0.020504 -0.011921 -0.044330 -0.014126 98.807213 995.874573
38 995.874512 -0.020504 -0.011921 -0.044006 -0.015143 96.178589 995.874573
[Rear_Foot]
36 3096.176270 -0.067472 -0.041425 86.288429 46.126926 -92.692307 3096.176270
37 3096.176270 -0.067472 -0.041425 86.226883 45.795204 -93.424591 3096.176270
38 3096.176270 -0.067472 -0.041425 86.171768 45.462990 -94.151978 3096.176270
[planeAlignerCenter]
36 7.504269 76.257408 -749.553711 0.001729 -0.001588 175.156235 753.460205
37 6.160303 79.100105 -740.232788 0.001713 -0.001605 176.291351 744.472534
38 4.816343 81.942780 -730.911926 0.001697 -0.001622 177.426346 735.506653
[Rear_Toe1_01]
36 0.653352 83.966492 -371.173737 -0.089858 24.873489 84.919945 380.553192
37 0.653352 83.966492 -371.173737 -0.046233 24.361591 86.016762 380.553192
38 0.653352 83.966492 -371.173737 -0.013497 23.848978 87.108894 380.553192
[Rear_Toe2_01]
36 178.200760 -294.826019 -362.060547 -0.232486 49.847538 -77.089691 499.765686
37 178.200760 -294.826019 -362.060547 0.108196 49.237904 -75.308693 499.765686
38 178.200760 -294.826019 -362.060547 0.415834 48.621887 -73.555321 499.765686
[Rear_Toe3_01]
36 -153.359680 -308.780914 -362.060852 -2.700249 49.843250 -120.005753 499.952881
37 -153.359680 -308.780914 -362.060852 -2.386893 49.266251 -118.479179 499.952881
38 -153.359680 -308.780914 -362.060852 -2.100508 48.683994 -116.974831 499.952881
[planeLockWeightCenter]
36 1000.000366 0.000601 -0.000097 -0.011814 -0.004373 -0.000015 1000.000366
37 1000.000366 0.000608 -0.000096 -0.011814 -0.004373 -0.000015 1000.000366
38 1000.000488 0.000616 -0.000095 -0.011814 -0.004373 -0.000015 1000.000488
[Rear_Toe1_02]
36 379.707825 0.194073 0.000477 -0.004349 -33.549995 0.003044 379.707855
37 379.707825 0.194073 0.000477 -0.004349 -33.549011 0.003044 379.707855
38 379.707825 0.194073 0.000477 -0.004349 -33.548027 0.003044 379.707855
[Rear_Toe1_03]
36 500.129700 0.165701 0.000119 -0.001688 69.268265 0.000852 500.129761
37 500.129700 0.165701 0.000119 -0.000032 69.547203 0.001998 500.129761
38 500.129700 0.165701 0.000119 0.001662 69.826096 0.003184 500.129761
[Rear_Toe2_02]
36 340.494507 0.000238 -0.000954 0.001176 -83.263664 0.001176 340.494507
37 340.494507 0.000238 -0.000954 0.001175 -83.898285 0.001175 340.494507
38 340.494507 0.000238 -0.000954 0.001175 -84.532883 0.001175 340.494507
[Rear_Toe2_03]
36 433.103577 0.000000 0.000238 179.972504 85.106674 179.972504 433.103546
37 433.103577 0.000000 0.000238 179.978622 83.709007 179.978622 433.103546
38 433.103577 0.000000 0.000238 179.982498 82.311295 179.982498 433.103546
[Rear_Toe3_02]
36 340.494141 -0.000358 -0.000477 0.001175 -83.649887 0.001175 340.494171
37 340.494141 -0.000358 -0.000477 0.001175 -84.259155 0.001175 340.494171
38 340.494141 -0.000358 -0.000477 0.001175 -84.574150 0.001175 340.494171
[Rear_Toe3_03]
36 433.103577 0.001431 -0.000238 -179.990143 84.326775 -179.986633 433.103546
37 433.103577 0.001431 -0.000238 -179.992355 82.989555 -179.988846 433.103546
38 433.103577 0.001431 -0.000238 -179.993378 82.122314 -179.989883 433.103546
[Back_Bone]
36 1312.175781 -701.934692 0.000954 -2.791076 2.926607 -88.311546 1488.125488
37 1312.175781 -701.934692 0.000954 -2.984262 3.146260 -88.322662 1488.125488
38 1312.175781 -701.934692 0.000954 -2.769221 3.160883 -87.928482 1488.125488
[Head]
36 1406.159424 809.709290 0.001431 3.923970 -1.133844 -0.271427 1622.625488
37 1406.159424 809.709290 0.001431 3.880910 -0.865933 -0.342743 1622.625488
38 1406.159424 809.709290 0.001431 3.837519 -0.598078 -0.414255 1622.625488
[Motor_Bone]
36 1158.364380 -417.834747 0.000477 5.388104 -1.720919 -107.705574 1231.419434
37 1158.364380 -417.834747 0.000477 -0.064415 0.133392 -105.853745 1231.419434
38 1158.364380 -417.834747 0.000477 -5.513572 1.191229 -104.796593 1231.419434
[Ping_Mechanism]
36 1239.287720 -444.808929 -21.231592 0.000103 -0.000053 82.120995 1316.867432
37 1244.533203 -445.970734 -30.163605 0.000103 -0.000053 82.120995 1322.369995
38 1249.778809 -447.132538 -39.095512 0.000103 -0.000053 82.120995 1327.931763
[BN_LookIK]
36 193.241119 1380.371704 -0.002861 0.000000 89.965736 -31.038179 1393.832153
37 193.241119 1380.371704 -0.002861 0.000000 89.965736 -31.038179 1393.832153
38 193.241119 1380.371704 -0.002861 0.000000 89.965736 -31.038179 1393.832153
[bottomMouth]
36 -435.092926 615.759399 -0.000954 -0.000022 0.000016 73.527184 753.966492
37 -435.092926 615.759399 -0.000954 -0.000022 0.000016 73.527184 753.966492
38 -435.092926 615.759399 -0.000954 -0.000022 0.000016 73.527184 753.966492
[L_Mouth01]
36 554.440979 7.658243 838.222046 150.204178 23.759130 109.605339 1005.027161
37 554.440979 7.658243 838.222046 150.204178 23.759130 109.605339 1005.027161
38 554.440979 7.658243 838.222046 150.204178 23.759130 109.605339 1005.027161
[L_mouthFront]
36 551.629089 934.514771 339.150421 0.000081 2.804060 79.119301 1136.941284
37 551.629089 934.514771 339.150421 0.000081 2.804060 79.119301 1136.941284
38 551.629089 934.514771 339.150421 0.000081 2.804060 79.119301 1136.941284
[mouthGun]
36 55.332661 1627.420898 0.000000 0.000023 0.000009 -11.038128 1628.361328
37 55.332661 1627.420898 0.000000 0.000023 0.000009 -11.038128 1628.361328
38 55.332661 1627.420898 0.000000 0.000023 0.000009 -11.038128 1628.361328
[R_Mouth01]
36 554.442383 7.659197 -838.223938 29.795891 -23.759109 109.605331 1005.029541
37 554.442383 7.659197 -838.223938 29.795891 -23.759109 109.605331 1005.029541
38 554.442383 7.659197 -838.223938 29.795891 -23.759109 109.605331 1005.029541
[R_mouthFront]
36 551.629089 934.514282 -339.151367 0.000029 -2.803930 79.119133 1136.941162
37 551.629089 934.514282 -339.151367 0.000029 -2.803930 79.119133 1136.941162
38 551.629089 934.514282 -339.151367 0.000029 -2.803930 79.119133 1136.941162
[TopMouth]
36 461.269867 -56.106091 -0.008583 -0.000059 -0.000268 92.025169 464.669525
37 461.269867 -56.106091 -0.008583 -0.000059 -0.000268 92.025169 464.669525
38 461.269867 -56.106091 -0.008583 -0.000059 -0.000268 92.025169 464.669525
[weapon_bone]
36 -987.239868 1448.372803 0.001431 0.000000 89.965736 -31.038221 1752.833740
37 -987.239868 1448.372803 0.001431 0.000000 89.965736 -31.038221 1752.833740
38 -987.239868 1448.372803 0.001431 0.000000 89.965736 -31.038221 1752.833740
